HIERARCHY
ROOT pelvis
{
  OFFSET 0 100 0
  CHANNELS 6 Xposition Yposition Zposition Zrotation Xrotation Yrotation
  JOINT pelvis_right_femur
  {
    OFFSET -10.78128 -3.44521 -0.5502486
    CHANNELS 3 Zrotation Xrotation Yrotation
    JOINT right_femur_tibia
    {
      OFFSET -0.8047443 -44.0398 -0.1307829
      CHANNELS 3 Zrotation Xrotation Yrotation
      JOINT right_tibia_foot
      {
        OFFSET 3.006224 -47.83518 -5
        CHANNELS 3 Zrotation Xrotation Yrotation
        End Site
        {
          OFFSET 0 -5 15
        }
      }
    }
  }
  JOINT pelvis_left_femur
  {
    OFFSET 10.78128 -3.44521 -0.5502486
    CHANNELS 3 Zrotation Xrotation Yrotation
    JOINT left_femur_tibia
    {
      OFFSET 0.8047443 -44.0398 -0.1307829
      CHANNELS 3 Zrotation Xrotation Yrotation
      JOINT left_tibia_foot
      {
        OFFSET -4.370144 -48.10324 -4.275266
        CHANNELS 3 Zrotation Xrotation Yrotation
        End Site
        {
          OFFSET 0 -5 15
        }
      }
    }
  }
  JOINT pelvis_spine1
  {
    OFFSET 0 6.468898 -3.129235
    CHANNELS 3 Zrotation Xrotation Yrotation
    JOINT spine1
    {
      OFFSET 0 23.15396 4.99043
      CHANNELS 3 Zrotation Xrotation Yrotation
      JOINT spine2
      {
        OFFSET 0 20.79997 -5.064912
        CHANNELS 3 Zrotation Xrotation Yrotation
        JOINT neck
        {
          OFFSET 0 14.38658 9.616178
          CHANNELS 3 Zrotation Xrotation Yrotation
          End Site
          {
            OFFSET 0 20 0
          }
        }
      }
      JOINT right_manubrium
      {
        OFFSET -5.722621 16.35077 3.967754
        CHANNELS 3 Zrotation Xrotation Yrotation
        JOINT right_clavicle
        {
          OFFSET -13.16364 1.694482 -4.693211
          CHANNELS 3 Zrotation Xrotation Yrotation
          JOINT right_humerus
          {
            OFFSET -28.5034 -0.3100689 -2.792744
            CHANNELS 3 Zrotation Xrotation Yrotation
            JOINT right_radius
            {
              OFFSET -25.15693 0.02248979 -1.271978
              CHANNELS 3 Zrotation Xrotation Yrotation
              End Site
              {
                OFFSET -15 0 0
              }
            }
          }
        }
      }
      JOINT left_manubrium
      {
        OFFSET 5.722621 16.35077 3.967754
        CHANNELS 3 Zrotation Xrotation Yrotation
        JOINT left_clavicle
        {
          OFFSET 13.16364 1.694482 -4.693211
          CHANNELS 3 Zrotation Xrotation Yrotation
          JOINT left_humerus
          {
            OFFSET 29.39168 -1.063119 -2.237045
            CHANNELS 3 Zrotation Xrotation Yrotation
            JOINT left_radius
            {
              OFFSET 24.59957 -0.9528479 0.9047498
              CHANNELS 3 Zrotation Xrotation Yrotation
              End Site
              {
                OFFSET 15 -0 -0
              }
            }
          }
        }
      }
    }
  }
}
MOTION
Frames: 7
Frame Time: 0.0416666666667
-173.9127 103.2545 3217.125 0.1001282 -7.888894 -7.971087 -0.1160342 -19.70914 0.9805566 -0 29.0274 -0 0.1946609 -3.745566 -8.919773 -4.725269 11.95058 -7.854215 -0 14.88116 -0 -6.175373 -19.26509 12.77928 -0.5538502 -0.03328374 5.937697 1.128727 12.45315 -6.706216 1.253925 22.54652 4.885011 1.025999 -25.06368 7.812335 -3.42293 -23.56669 11.43769 93.7228 26.27636 -15.55026 -0 0 14.02696 -18.30301 6.817165 8.802004 3.25922 -20.84339 -2.864229 -89.47331 15.31698 23.06851 0 0 -11.82304 11.53674 11.25515 -2.051856
-174.8161 102.2206 3223.227 0.2202876 -7.604592 -7.446226 0.007567797 -22.34027 0.5359924 -0 21.50658 -0 0.03905305 -4.317602 -9.271251 -4.743395 14.94632 -7.765648 -0 15.82614 -0 -6.66838 -20.29518 12.63479 -0.5677492 0.05639304 5.60894 1.422607 12.32732 -6.952519 1.268946 22.57696 5.149162 1.204366 -25.43474 8.071886 -3.152797 -22.91196 11.57285 94.07205 26.73338 -16.51574 -0 0 12.824 -17.40703 6.607618 8.105315 3.379444 -21.21633 -2.922595 -88.93371 15.31955 21.49636 0 0 -13.25988 12.29425 11.27046 -2.978828
-175.8992 101.1392 3229.663 0.2978859 -7.523772 -7.0742 0.465242 -23.64744 0.517394 -0 16.33451 -0 -0.08234067 -4.092844 -9.605174 -4.740124 17.32327 -7.556194 -0 18.55402 -0 -6.777703 -20.34126 12.86728 -0.5906501 0.09971781 5.34678 1.701787 12.17679 -7.158559 1.282917 22.5686 5.347158 1.328689 -25.74601 8.284713 -2.879917 -22.39811 11.69615 94.22254 27.24782 -17.2176 -0 0 11.92289 -16.55328 6.426496 7.547741 3.48479 -21.49674 -2.930052 -88.47365 15.22708 20.24737 0 0 -14.53628 13.03914 11.33542 -3.882828
-177.1794 100.2869 3236.46 0.2480774 -7.694168 -6.847172 1.261781 -23.41703 0.9583198 -0 13.91074 -0 -0.3133515 -3.302957 -9.930005 -4.604592 18.91494 -7.281588 -0 23.10775 -0 -6.985577 -19.31217 13.25568 -0.6209963 0.1089592 5.16428 1.936067 12.03327 -7.310338 1.295071 22.5393 5.482187 1.409769 -25.97988 8.443149 -2.613782 -22.02809 11.80158 94.20362 27.76435 -17.65587 -0 0 11.3304 -15.82188 6.287449 7.140501 3.572171 -21.67761 -2.89367 -88.14507 15.09403 19.37396 0 0 -15.49799 13.69491 11.42873 -4.670808
-178.6459 99.87772 3243.547 0.02636642 -8.120276 -6.804176 2.301661 -21.55844 1.853056 -0 13.94933 -0 -0.6668843 -2.665299 -10.25313 -4.263258 19.41877 -7.037073 -0 29.23664 -0 -7.564258 -17.25657 13.69691 -0.6550569 0.09695318 5.066024 2.10186 11.92571 -7.403657 1.303802 22.50539 5.558078 1.458404 -26.1216 8.539941 -2.364508 -21.79414 11.88439 94.06056 28.22337 -17.85748 -0 0 11.02866 -15.28188 6.207358 6.883417 3.640579 -21.76496 -2.82384 -87.97722 14.97001 18.89005 0 0 -16.03327 14.19588 11.53484 -5.266221
-180.245 100.0194 3250.752 -0.3389148 -8.713208 -7.013636 3.394532 -18.32447 3.075703 -0 15.59188 -0 -1.082094 -2.811707 -10.49993 -3.756119 18.42078 -6.855014 -0 36.38914 -0 -8.309148 -14.43395 14.27433 -0.6888358 0.07285431 5.053273 2.182737 11.87443 -7.43911 1.306947 22.47868 5.576685 1.48188 -26.15842 8.567546 -2.142768 -21.68772 11.94108 93.83498 28.5747 -17.85336 -0 0 10.99603 -14.9874 6.200698 6.774711 3.690317 -21.76925 -2.729918 -87.9816 14.88809 18.79241 0 0 -16.07689 14.49431 11.64547 -5.616008
-181.8864 100.6831 3257.854 -0.7226133 -9.333257 -7.507481 4.273111 -14.2568 4.328951 -0 17.59832 -0 -1.473966 -3.822016 -10.49377 -3.253665 15.60123 -6.690419 -0 43.72977 -0 -8.798348 -11.42118 15.0815 -0.7200121 0.03990004 5.127737 2.16869 11.88762 -7.417064 1.302323 22.46519 5.537159 1.482255 -26.07929 8.518876 -1.960079 -21.70645 11.96869 93.55053 28.78619 -17.65983 -0 0 11.22201 -14.97615 6.274796 6.818634 3.721915 -21.69774 -2.617855 -88.15697 14.86134 19.07695 0 0 -15.60929 14.56198 11.75719 -5.69008
